<?xml version="1.0" encoding="utf-8"?>
<!-- Generator: Adobe Illustrator 27.3.1, SVG Export Plug-In . SVG Version: 6.00 Build 0)  -->
<svg version="1.1" id="Layer_1" xmlns="http://www.w3.org/2000/svg" xmlns:xlink="http://www.w3.org/1999/xlink" x="0px" y="0px"
	 viewBox="0 0 3766.705 1029.797" style="enable-background:new 0 0 3766.705 1029.797;" xml:space="preserve">
<style type="text/css">
	.st0{fill:none;}
	.st1{fill:#6699FF;}
	.st2{opacity:0.3;fill:#00A69D;}
	.st3{fill:#FF9933;}
	.st4{opacity:0.3;fill:#F9B040;}
	.st5{fill:#FF0066;}
	.st6{fill:none;stroke:#FFFFFF;stroke-width:7.8132;stroke-miterlimit:10;}
	.st7{fill:none;stroke:#FFFFFF;stroke-width:7.8132;stroke-miterlimit:10;stroke-dasharray:41.9272,41.9272;}
	.st8{fill:none;stroke:#FFFFFF;stroke-width:7.8132;stroke-miterlimit:10;stroke-dasharray:44.75,44.75;}
	.st9{fill:#333333;}
</style>
<rect x="-489.647" class="st0" width="5000" height="5000"/>
<g>
	<path class="st1" d="M125.127,470.632l470.346,466.824l0.048,0.149l0.498-0.49l82.122-82.638
		c-32.399-32.043-32.609-84.378-0.369-116.676c24.867-25.146,61.928-30.918,92.501-17.174l0.197,0.101
		c6.154,2.768,12.103,6.426,17.503,10.917c2.209,1.748,4.318,3.693,6.475,5.786l4.436-4.559l78.136-78.718L412.506,193.16
		l-6.029-5.93l-24.618,24.9l-2.74,2.695l-140.823,141.75l-29.102,29.31L125.127,470.632z"/>
	<path class="st2" d="M209.193,385.885l386.279,551.571l0.546-0.341l105.125-73.503c-28.618-41.154-18.909-97.853,22.345-126.669
		c14.464-10.11,30.518-15.315,46.784-16.316l0.197,0.101c1.632-0.036,3.262-0.072,4.893-0.107c3.709-0.217,7.412,0.061,11.016,0.536
		l73.231-83.206L379.119,214.825l-140.823,141.75L209.193,385.885z"/>
	<path class="st3" d="M213.232,315.748l25.063,40.827l357.177,580.881l0.546-0.341l109.322-67.144
		c-26.183-42.764-12.971-98.792,29.942-125.023c16.44-10.094,34.76-14.39,52.69-13.303c3.655,0.129,7.408,0.555,10.91,1.227
		l78.136-78.718L412.506,193.16l-30.647,18.97l-60.546,37.205L213.232,315.748z"/>
	<path class="st4" d="M321.312,249.335l274.16,688.122l0.546-0.341l109.322-67.144c-26.183-42.764-12.971-98.792,29.942-125.023
		c16.44-10.094,34.76-14.39,52.69-13.303c3.655,0.129,7.408,0.555,10.91,1.227l78.136-78.718L412.506,193.16l-30.647,18.97
		L321.312,249.335z"/>
	<path class="st5" d="M354.836,195.052L595.565,937.64l131.221-42.539c-16.552-51.058,11.435-105.895,62.494-122.447
		c51.058-16.552,105.895,11.435,122.447,62.493l131.221-42.539L802.219,50.022L670.998,92.561
		c16.552,51.058-11.435,105.895-62.494,122.447s-105.895-11.435-122.447-62.493L354.836,195.052z"/>
	<g>
		<g>
			<path class="st6" d="M668.782,881.051l22.297-7.228c-0.534-7.875-0.329-15.705,0.569-23.402"/>
			<path class="st7" d="M703.153,810.291c14.618-30.931,41.452-56.008,76.492-67.367c42.191-13.677,86.416-4.27,118.952,21.216"/>
			<path class="st6" d="M913.972,778.348c5.243,5.706,10.003,11.927,14.191,18.618l22.297-7.228"/>
			<polyline class="st6" points="981.279,779.747 1003.576,772.519 996.348,750.222 			"/>
			<line class="st8" x1="982.548" y1="707.652" x2="796.249" y2="132.97"/>
			<polyline class="st6" points="789.35,111.685 782.121,89.388 759.824,96.616 			"/>
			<path class="st6" d="M729.005,106.607l-22.297,7.228c0.534,7.875,0.329,15.705-0.569,23.402"/>
			<path class="st7" d="M694.635,177.366c-14.618,30.931-41.452,56.008-76.492,67.367c-42.191,13.677-86.416,4.27-118.952-21.216"/>
			<path class="st6" d="M483.816,209.309c-5.243-5.706-10.003-11.927-14.191-18.618l-22.297,7.228"/>
			<polyline class="st6" points="416.495,207.915 394.197,215.143 401.426,237.441 			"/>
			<line class="st8" x1="415.225" y1="280.01" x2="601.524" y2="854.693"/>
			<polyline class="st6" points="608.424,875.977 615.652,898.274 637.949,891.046 			"/>
		</g>
	</g>
	<g>
		<g>
			<path class="st9" d="M1236.284,824.763V397.515h111.652v427.249H1236.284z"/>
			<path class="st9" d="M1782.954,565.454v259.31h-111.65v-258.9c0-21.13-5.91-37.39-17.73-48.78
				c-11.81-11.38-28.59-17.08-50.32-17.08c-20.65,0-36.61,5.83-47.88,17.49c-11.28,11.67-16.91,28.06-16.91,49.19v258.08h-111.65
				v-427.25h111.65v58.16c10.42-18.01,22.44-32.46,36.06-43.34c17.52-14,40.27-20.99,68.26-20.99c44.55,0,79.05,15.16,103.5,45.48
				C1770.734,467.144,1782.954,510.024,1782.954,565.454z"/>
			<path class="st9" d="M1991.824,359.234v38.28h71.31v96.32h-71.31v330.93h-111.66v-330.93h-44.82v-96.32h44.82v-58.04
				c0-37.59,8.56-65.85,25.68-84.79c17.11-18.93,43.73-28.4,79.86-28.4h77.43v100.43h-47.27c-8.42,0-14.54,3.23-18.34,9.68
				C1993.714,342.844,1991.824,350.454,1991.824,359.234z"/>
			<path class="st9" d="M2444.774,629.253c0-75.46-15.28-133.98-45.85-175.55c-30.56-41.58-73.82-62.36-129.78-62.36
				c-59.23,0-105.07,17.43-137.53,52.27c-32.46,34.85-48.69,84.11-48.69,147.77v48.16c0,60.91,16.91,108.04,50.73,141.38
				s81.43,50.01,142.82,50.01c27.98,0,55.69-5.55,83.13-16.67c27.44-11.11,52.16-26.81,74.17-47.13l-72.94-65.44
				c-11.96,9.88-25.27,17.49-39.94,22.84c-14.67,5.35-29.48,8.03-44.42,8.03c-29.07,0-51.68-7.96-67.84-23.87
				c-13.06-12.85-20.84-30-23.35-51.45h259.49V629.253z M2184.485,581.094c0.91-26.86,8.27-47.85,22.11-62.98
				c14.8-16.19,35.66-24.28,62.55-24.28c20.91,0,37.49,6.79,49.71,20.37c12.23,13.58,19.83,32.59,22.82,57.01l1.23,9.88H2184.485z"
				/>
			<path class="st9" d="M2806.035,432.914c-30.43-27.71-73.49-41.57-129.17-41.57c-33.69,0-64.39,5.42-92.09,16.26
				c-27.71,10.84-49.99,26-66.83,45.48l69.27,68.74c11.95-9.61,25.67-16.94,41.16-22.02c15.48-5.08,31.1-7.62,46.86-7.62
				c23.9,0,42.38,5.35,55.42,16.05c13.04,10.71,19.56,25.93,19.56,45.69v18.11h-102.28c-50.26,0-87.96,10.5-113.08,31.49
				c-25.13,20.99-37.7,52.76-37.7,95.29c0,44.73,11.27,77.93,33.83,99.61c22.54,21.68,56.36,32.51,101.46,32.51
				c19.83,0,39.05-2.54,57.66-7.61c18.61-5.08,34.29-12.9,47.07-23.46c5.31-4.4,9.66-9.29,13.04-14.66v39.56h101.46v-274.54
				C2851.675,499.734,2836.465,460.634,2806.035,432.914z M2728.205,729.684c-14.67,6.86-36.81,10.29-66.42,10.29
				c-21.19,0-37.15-3.36-47.88-10.09c-10.73-6.72-16.1-17.08-16.1-31.07c0-13.72,4.21-23.94,12.64-30.67
				c8.41-6.72,21.05-10.08,37.89-10.08h101.88v39.51C2750.215,712.124,2742.875,722.824,2728.205,729.684z"/>
			<path class="st9" d="M3098.437,830.937c-38.037,0-74.234-5.145-108.597-15.435c-34.369-10.291-63.639-24.626-87.814-43.014
				l68.866-86.849c20.374,13.171,41.697,23.326,63.976,30.459c22.272,7.139,43.462,10.701,63.569,10.701
				c26.079,0,46.313-2.945,60.716-8.85c14.396-5.897,21.597-14.059,21.597-24.49c0-12.618-4.96-21.262-14.873-25.931
				c-9.92-4.663-22.89-7.75-38.916-9.261c-16.032-1.505-33.006-3.499-50.936-5.968c-18.204-2.47-36.203-5.415-53.993-8.85
				c-17.796-3.428-34.025-9.055-48.695-16.876c-14.669-7.82-26.353-19.616-35.044-35.398c-8.697-15.776-13.04-37.25-13.04-64.417
				c0-43.078,15.077-76.417,45.231-100.021c30.154-23.597,72.801-35.398,127.953-35.398c32.325,0,64.18,4.804,95.557,14.406
				c31.376,9.608,59.423,23.191,84.146,40.749l-66.421,81.91c-18.478-10.425-37.763-18.522-57.864-24.285
				c-20.106-5.762-39.393-8.644-57.863-8.644c-22.552,0-40.074,2.54-52.566,7.615c-12.499,5.081-18.745,12.419-18.745,22.021
				c0,8.232,4.343,14.406,13.04,18.522c8.691,4.116,20.101,7.068,34.229,8.85c14.122,1.788,29.339,3.64,45.639,5.557
				c18.745,2.2,37.623,4.875,56.642,8.026c19.012,3.158,36.471,8.85,52.362,17.082c15.893,8.232,28.729,20.722,38.508,37.456
				c9.78,16.741,14.67,39.791,14.67,69.15c0,44.73-15.828,79.44-47.473,104.137C3200.647,818.589,3156.027,830.937,3098.437,830.937
				z"/>
			<path class="st9" d="M3694.004,629.253c0-75.46-15.28-133.98-45.84-175.55c-30.56-41.58-73.82-62.36-129.78-62.36
				c-59.23,0-105.07,17.43-137.53,52.27c-32.47,34.85-48.7,84.11-48.7,147.77v48.16c0,60.91,16.91,108.04,50.74,141.38
				c33.82,33.34,81.42,50.01,142.82,50.01c27.98,0,55.69-5.55,83.13-16.67c27.44-11.11,52.16-26.81,74.16-47.13l-72.94-65.44
				c-11.96,9.88-25.26,17.49-39.93,22.84c-14.67,5.35-29.48,8.03-44.42,8.03c-29.07,0-51.69-7.96-67.85-23.87
				c-13.05-12.85-20.83-30-23.34-51.45h259.48V629.253z M3433.725,581.094c0.91-26.86,8.27-47.85,22.11-62.98
				c14.8-16.19,35.65-24.28,62.55-24.28c20.91,0,37.49,6.79,49.71,20.37c12.23,13.58,19.83,32.59,22.82,57.01l1.22,9.88H3433.725z"
				/>
		</g>
		<path class="st5" d="M1216.173,267.672v-1.535c0-41.938,33.998-75.936,75.936-75.936h0c41.938,0,75.936,33.998,75.936,75.936
			v1.535c0,41.938-33.998,75.936-75.936,75.936h0C1250.171,343.608,1216.173,309.61,1216.173,267.672z"/>
	</g>
</g>
</svg>
